<svg xmlns="http://www.w3.org/2000/svg" width="103" height="104" viewBox="0 0 103 104">
    <g fill="none" fill-rule="evenodd">
        <path fill="#374146" d="M20.143 24.234h1.445c1.6 0 2.402-.71 2.402-2.131 0-1.421-.802-2.13-2.402-2.13h-1.445v4.261zm0 9.251h-4.36V16.391h6.939c1.883 0 3.325.498 4.325 1.494 1 .998 1.501 2.406 1.501 4.218 0 1.813-.5 3.22-1.501 4.217-1 .998-2.442 1.496-4.325 1.496h-2.579v5.67zM47.274 24.03h.823c.86 0 1.52-.181 1.979-.544.46-.362.689-.885.689-1.563 0-.681-.23-1.203-.689-1.565-.46-.363-1.12-.545-1.98-.545h-.822v4.218zm9.584 9.455h-5.427l-4.157-6.575v6.575h-4.358V16.39h6.781c.936 0 1.75.14 2.447.419.696.28 1.27.662 1.723 1.146a4.843 4.843 0 0 1 1.023 1.676c.23.636.344 1.316.344 2.042 0 1.3-.307 2.353-.921 3.162-.617.81-1.524 1.357-2.726 1.645l5.271 7.005zM73.015 24.937c0 .68.125 1.308.379 1.882a4.745 4.745 0 0 0 1.021 1.497c.43.423.931.752 1.502.986.57.234 1.175.35 1.812.35a4.743 4.743 0 0 0 3.324-1.337 4.694 4.694 0 0 0 1.035-1.496c.25-.574.378-1.202.378-1.882a4.66 4.66 0 0 0-.378-1.882 4.705 4.705 0 0 0-2.547-2.482 4.728 4.728 0 0 0-1.812-.35c-.637 0-1.241.116-1.812.35a4.622 4.622 0 0 0-1.502.986c-.43.423-.77.923-1.021 1.496a4.614 4.614 0 0 0-.379 1.882m-4.558 0c0-1.27.23-2.452.689-3.548a8.871 8.871 0 0 1 1.912-2.868 8.724 8.724 0 0 1 2.924-1.916c1.135-.46 2.383-.69 3.747-.69 1.349 0 2.594.23 3.736.69a8.822 8.822 0 0 1 2.946 1.916 8.79 8.79 0 0 1 1.924 2.868c.46 1.096.689 2.278.689 3.548s-.23 2.454-.69 3.55a8.782 8.782 0 0 1-1.923 2.866 8.778 8.778 0 0 1-2.946 1.916c-1.142.46-2.387.69-3.736.69-1.364 0-2.612-.23-3.747-.69a8.68 8.68 0 0 1-2.924-1.916 8.863 8.863 0 0 1-1.912-2.867c-.46-1.095-.69-2.279-.69-3.55"/>
        <path fill="#EA5A0A" d="M52.066 81.497v6.401h-4.358v-6.401h-5.326V77.11h15.01v4.387z"/>
        <path fill="#FFF" d="M47.708 75.247h4.358v-4.443h-4.358zM28.581 49.31c-1.008-1.255-2.253-1.882-3.736-1.882a4.48 4.48 0 0 0-3.247 1.348c-.4.416-.714.913-.943 1.486a4.96 4.96 0 0 0-.346 1.858c0 .681.116 1.308.346 1.883.23.575.548 1.073.956 1.496.408.423.885.758 1.433.998a4.37 4.37 0 0 0 1.779.363c1.393 0 2.646-.603 3.758-1.814v5.26l-.444.158a12.8 12.8 0 0 1-1.868.532 8.88 8.88 0 0 1-1.713.17 8.49 8.49 0 0 1-3.324-.668 8.672 8.672 0 0 1-2.802-1.881 9.367 9.367 0 0 1-1.945-2.88c-.489-1.11-.734-2.323-.734-3.638 0-1.316.24-2.52.722-3.616a8.99 8.99 0 0 1 1.935-2.834 8.823 8.823 0 0 1 6.172-2.528c.666 0 1.322.071 1.967.215.644.144 1.323.367 2.034.67v5.304zM46.74 50.194h6.293v-6.597h4.358V60.69h-4.358v-7.049h-6.292v7.05h-4.358V43.596h4.358zM79.697 54.343l-1.957-5.692-1.957 5.692h3.914zm1.157 3.378h-6.228l-.999 2.97H68.98l6.381-17.095h4.76l6.38 17.095h-4.647l-1-2.97zM19.554 78.444h.822c.859 0 1.52-.182 1.98-.545.459-.364.688-.884.688-1.564s-.23-1.202-.688-1.564c-.46-.363-1.121-.545-1.98-.545h-.822v4.218zm9.583 9.454H23.71l-4.157-6.575v6.575h-4.36V70.803h6.783c.934 0 1.75.14 2.447.419.696.28 1.27.662 1.721 1.145a4.858 4.858 0 0 1 1.025 1.678 5.99 5.99 0 0 1 .344 2.041c0 1.3-.308 2.353-.923 3.162-.615.81-1.523 1.357-2.724 1.645l5.27 7.005zM75.55 79.69l-6.116-8.887h5.204l3.114 4.67 3.09-4.67h5.204l-6.138 8.888v8.207H75.55z"/>
    </g>
</svg>
